<?xml version="1.0" encoding="UTF-8"?><svg id="Icons" xmlns="http://www.w3.org/2000/svg" viewBox="0 0 247.39 248.8"><defs><style>.cls-1{fill:#424241;}.cls-2{fill:#37c0ed;}.cls-3{fill:#88c54a;}</style></defs><g id="Studio_Logo"><polygon id="Corner_-_Right" class="cls-3" points="88.93 46.84 185.63 46.84 185.63 105.96 232.47 105.96 232.47 0 88.93 0 88.93 46.84"/><polygon id="Corner_-_Lower_Left" class="cls-2" points="143.33 204.55 36.84 204.55 36.84 66.11 0 66.11 0 231.4 143.33 231.4 143.33 204.55"/><path id="S" class="cls-1" d="M241.91,131.72l-6.9,13.8c-10.47-4.99-19.27-8.56-29.74-8.56-13.57,0-22.37,7.85-22.37,19.52,0,9.04,4.52,14.51,17.13,17.13l15.71,3.34c21.41,4.52,31.65,15.46,31.65,33.07,0,23.09-18.08,38.79-44.74,38.79-14.99,0-31.41-4.52-43.55-11.9l7.14-13.8c12.13,7.37,24.51,11.18,37.6,11.18,14.51,0,24.03-7.86,24.03-20.46,0-10.71-5.95-16.66-19.52-19.52l-14.75-3.1c-19.52-4.04-29.98-16.18-29.98-32.6,0-21.42,17.37-36.41,42.12-36.41,12.38,0,26.17,3.81,36.17,9.52Z"/></g></svg>